<svg width="30" height="28" viewBox="0 0 30 28" fill="none" xmlns="http://www.w3.org/2000/svg">
<path d="M9.7996 14L0.480962 3.15C-0.0801603 2.48333 -0.150301 1.79167 0.270541 1.075C0.691383 0.358333 1.40281 0 2.40481 0C2.80561 0 3.18637 0.075 3.54709 0.225C3.90782 0.375 4.18838 0.583333 4.38878 0.85L15.6914 14L4.38878 27.15C4.18838 27.4167 3.90782 27.625 3.54709 27.775C3.18637 27.925 2.80561 28 2.40481 28C1.44289 28 0.741483 27.6417 0.300601 26.925C-0.140281 26.2083 -0.0801603 25.5167 0.480962 24.85L9.7996 14ZM24.1082 14L14.7896 3.15C14.2285 2.48333 14.1583 1.79167 14.5792 1.075C15 0.358333 15.7114 0 16.7134 0C17.1142 0 17.495 0.075 17.8557 0.225C18.2164 0.375 18.497 0.583333 18.6974 0.85L30 14L18.6974 27.15C18.497 27.4167 18.2164 27.625 17.8557 27.775C17.495 27.925 17.1142 28 16.7134 28C15.7515 28 15.0501 27.6417 14.6092 26.925C14.1683 26.2083 14.2285 25.5167 14.7896 24.85L24.1082 14Z" fill="#E8EAED"/>
</svg>
