<svg width="84" height="30" viewBox="0 0 84 30" fill="none" xmlns="http://www.w3.org/2000/svg">
<path d="M82.7651 16.4669C83.5461 15.6859 83.5461 14.4196 82.7651 13.6385L70.0372 0.910598C69.2561 0.129549 67.9898 0.129549 67.2087 0.910598C66.4277 1.69165 66.4277 2.95798 67.2087 3.73902L78.5224 15.0527L67.2087 26.3664C66.4277 27.1475 66.4277 28.4138 67.2087 29.1949C67.9898 29.9759 69.2561 29.9759 70.0372 29.1949L82.7651 16.4669ZM2.40351 13.0527C1.29894 13.0527 0.403511 13.9482 0.403511 15.0527C0.403511 16.1573 1.29893 17.0527 2.40351 17.0527L2.40351 13.0527ZM81.3509 13.0527L2.40351 13.0527L2.40351 17.0527L81.3509 17.0527L81.3509 13.0527Z" fill="white"/>
</svg>
