<svg width="1200" height="630" viewBox="0 0 1200 630" fill="none" xmlns="http://www.w3.org/2000/svg">
<rect width="1200" height="630" fill="url(#paint0_linear_2217_38)"/>
<path d="M83.055 166.748C76.7537 163.597 70.4523 159.52 64.151 154.516C57.8497 149.419 54.699 142.84 54.699 134.778C54.7917 126.994 57.9887 120.554 64.29 115.457C70.5913 110.268 79.1167 107.673 89.866 107.673C94.592 107.673 99.457 108.368 104.461 109.758C109.558 111.055 113.959 112.955 117.666 115.457L110.16 132.554C105.156 130.793 101.357 129.681 98.762 129.218C96.1673 128.662 93.2947 128.384 90.144 128.384C87.2713 128.384 85.001 129.079 83.333 130.469C81.665 131.766 80.831 133.295 80.831 135.056C80.831 137.095 82.221 138.902 85.001 140.477C87.8737 141.96 91.256 143.72 95.148 145.759C101.82 149.188 108.26 153.497 114.469 158.686C120.678 163.875 123.782 170.316 123.782 178.007C123.782 185.976 120.4 192.602 113.635 197.884C106.963 203.166 97.789 205.807 86.113 205.807C81.2943 205.807 75.827 205.112 69.711 203.722C63.6877 202.239 58.8227 200.386 55.116 198.162L63.456 179.119C65.8653 180.602 69.2477 181.992 73.603 183.289C78.051 184.494 81.9893 185.096 85.418 185.096C89.4027 185.096 92.4143 184.308 94.453 182.733C96.5843 181.158 97.65 179.49 97.65 177.729C97.65 176.061 96.121 174.254 93.063 172.308C90.005 170.362 86.669 168.509 83.055 166.748ZM163.599 204V129.357H135.799V109.48H216.697L219.06 129.357H188.897V204H163.599ZM295.252 166.609V109.48H320.55V167.86C320.55 180.185 316.611 189.637 308.735 196.216C300.951 202.703 290.757 205.946 278.155 205.946C265.552 205.946 255.312 202.703 247.436 196.216C239.652 189.637 235.76 180.185 235.76 167.86V109.48H261.058V166.609C261.058 172.54 262.633 177.08 265.784 180.231C269.027 183.289 273.151 184.818 278.155 184.818C283.159 184.818 287.236 183.289 290.387 180.231C293.63 177.08 295.252 172.54 295.252 166.609ZM345.635 204V109.48H369.126L405.544 160.771V109.48H430.842V204H407.212L370.933 154.238V204H345.635ZM457.242 204V109.48H498.664C513.213 109.48 524.286 113.928 531.885 122.824C539.484 131.627 543.283 142.747 543.283 156.184C543.283 170.918 539.067 182.594 530.634 191.212C522.201 199.737 511.359 204 498.108 204H457.242ZM497.413 129.357H482.54V184.123H496.44C502.278 184.123 507.189 181.806 511.174 177.173C515.159 172.54 517.151 165.543 517.151 156.184C517.151 148.4 515.437 142.006 512.008 137.002C508.672 131.905 503.807 129.357 497.413 129.357ZM564.098 204V109.48H626.787L629.15 129.357H589.396V146.593H618.447L620.81 166.47H589.396V184.123H630.957L633.32 204H564.098ZM652.765 204V109.48H676.256L712.674 160.771V109.48H737.972V204H714.342L678.063 154.238V204H652.765ZM764.372 204V109.48H804.126C814.598 109.48 823.679 112.306 831.37 117.959C839.154 123.612 843.046 132.137 843.046 143.535C843.046 154.84 838.923 163.18 830.675 168.555C822.428 173.837 813.208 176.478 803.014 176.478H789.67V204H764.372ZM803.292 129.357H789.67V156.601H803.57C807.462 156.601 810.659 155.35 813.161 152.848C815.663 150.346 816.914 147.242 816.914 143.535C816.914 139.365 815.71 135.983 813.3 133.388C810.891 130.701 807.555 129.357 803.292 129.357ZM931.73 204H863.898V109.48H889.196V184.123H929.367L931.73 204ZM989.187 139.782L980.152 165.497H998.639L989.187 139.782ZM1002.25 109.48L1037.56 201.498L1012.68 204L1005.87 185.374H973.202L966.669 204H941.51L976.955 109.48H1002.25ZM1055.62 204V109.48H1079.11L1115.53 160.771V109.48H1140.83V204H1117.2L1080.92 154.238V204H1055.62ZM98.067 303.782L89.032 329.497H107.519L98.067 303.782ZM111.133 273.48L146.439 365.498L121.558 368L114.747 349.374H82.082L75.549 368H50.39L85.835 273.48H111.133ZM164.5 368V273.48H187.991L224.409 324.771V273.48H249.707V368H226.077L189.798 318.238V368H164.5ZM300.433 330.748C294.131 327.597 287.83 323.52 281.529 318.516C275.227 313.419 272.077 306.84 272.077 298.778C272.169 290.994 275.366 284.554 281.668 279.457C287.969 274.268 296.494 271.673 307.244 271.673C311.97 271.673 316.835 272.368 321.839 273.758C326.935 275.055 331.337 276.955 335.044 279.457L327.538 296.554C322.534 294.793 318.734 293.681 316.14 293.218C313.545 292.662 310.672 292.384 307.522 292.384C304.649 292.384 302.379 293.079 300.711 294.469C299.043 295.766 298.209 297.295 298.209 299.056C298.209 301.095 299.599 302.902 302.379 304.477C305.251 305.96 308.634 307.72 312.526 309.759C319.198 313.188 325.638 317.497 331.847 322.686C338.055 327.875 341.16 334.316 341.16 342.007C341.16 349.976 337.777 356.602 331.013 361.884C324.341 367.166 315.167 369.807 303.491 369.807C298.672 369.807 293.205 369.112 287.089 367.722C281.065 366.239 276.2 364.386 272.494 362.162L280.834 343.119C283.243 344.602 286.625 345.992 290.981 347.289C295.429 348.494 299.367 349.096 302.796 349.096C306.78 349.096 309.792 348.308 311.831 346.733C313.962 345.158 315.028 343.49 315.028 341.729C315.028 340.061 313.499 338.254 310.441 336.308C307.383 334.362 304.047 332.509 300.433 330.748ZM361.517 368V273.48H386.815V368H361.517ZM475.116 296.554C470.112 294.793 466.313 293.681 463.718 293.218C461.124 292.662 458.251 292.384 455.1 292.384C449.448 292.384 444.722 295.025 440.922 300.307C437.123 305.496 435.223 312.4 435.223 321.018C435.223 329.914 437.216 336.818 441.2 341.729C445.185 346.64 450.143 349.096 456.073 349.096C459.502 349.096 462.745 348.633 465.803 347.706C468.861 346.687 471.595 345.436 474.004 343.953L483.595 362.857C479.889 365.081 475.441 366.795 470.251 368C465.155 369.205 460.197 369.807 455.378 369.807C439.996 369.807 428.412 365.266 420.628 356.185C412.937 347.104 409.091 335.428 409.091 321.157C409.091 306.608 413.215 294.747 421.462 285.573C429.71 276.306 440.83 271.673 454.822 271.673C459.548 271.673 464.413 272.368 469.417 273.758C474.514 275.055 478.916 276.955 482.622 279.457L475.116 296.554ZM564.277 368V331.026H529.805V368H504.507V273.48L529.805 272.646V311.149H564.277V273.48H589.575V368H564.277ZM635.439 368V293.357H607.639V273.48H688.537L690.9 293.357H660.737V368H635.439Z" fill="#FFCAD8"/>
<path d="M60.088 421.464V434.68C61.1707 434.083 62.3093 433.616 63.504 433.28C64.736 432.944 65.8373 432.776 66.808 432.776C70.8027 432.776 73.864 434.157 75.992 436.92C78.12 439.683 79.184 443.117 79.184 447.224C79.184 451.331 78.0827 454.765 75.88 457.528C73.7147 460.291 70.6907 461.672 66.808 461.672C65.5387 461.672 64.12 461.411 62.552 460.888C60.984 460.365 59.584 459.637 58.352 458.704L56.56 461H52.864V422.08L60.088 421.464ZM64.904 455.456C67.4053 455.456 69.16 454.56 70.168 452.768C71.176 450.939 71.68 449.091 71.68 447.224C71.68 445.096 71.232 443.192 70.336 441.512C69.44 439.832 67.6293 438.992 64.904 438.992C64.12 438.992 63.2987 439.141 62.44 439.44C61.6187 439.701 60.8347 440.075 60.088 440.56V453.888C60.8347 454.336 61.6187 454.709 62.44 455.008C63.2987 455.307 64.12 455.456 64.904 455.456ZM90.2751 462.288L91.5631 459.096L81.8751 434.848L89.3791 433.84L95.6511 450.304L101.587 433.84H109.259L98.5631 461L97.1071 464.584C96.2484 466.787 94.7364 468.672 92.5711 470.24C90.4057 471.808 88.1284 472.872 85.7391 473.432L83.1631 467.44C84.4697 466.88 85.8511 466.189 87.3071 465.368C88.8004 464.584 89.7897 463.557 90.2751 462.288ZM151.053 429.808C149.411 429.323 148.067 428.949 147.021 428.688C145.976 428.389 144.632 428.24 142.989 428.24C139.965 428.24 137.632 429.472 135.989 431.936C134.347 434.4 133.525 437.779 133.525 442.072C133.525 445.768 134.216 448.96 135.597 451.648C136.979 454.336 139.293 455.68 142.541 455.68C144.147 455.68 145.64 455.512 147.021 455.176C148.44 454.84 149.728 454.429 150.885 453.944L153.629 459.32C152.173 460.067 150.419 460.664 148.365 461.112C146.312 461.56 144.501 461.784 142.933 461.784C136.997 461.784 132.685 459.88 129.997 456.072C127.309 452.264 125.965 447.616 125.965 442.128C125.965 436.267 127.44 431.469 130.389 427.736C133.376 424.003 137.651 422.136 143.213 422.136C144.333 422.136 145.883 422.323 147.861 422.696C149.84 423.069 151.651 423.704 153.293 424.6L151.053 429.808ZM164.873 452.88C164.873 453.664 165.19 454.373 165.825 455.008C166.459 455.605 167.299 455.904 168.345 455.904C169.353 455.904 170.361 455.68 171.369 455.232C172.414 454.784 173.403 454.112 174.337 453.216V449.072H168.849C167.579 449.072 166.59 449.464 165.881 450.248C165.209 451.032 164.873 451.909 164.873 452.88ZM168.457 461.672C165.134 461.672 162.67 460.869 161.065 459.264C159.459 457.621 158.657 455.493 158.657 452.88C158.657 450.08 159.609 447.933 161.513 446.44C163.417 444.947 165.899 444.2 168.961 444.2H174.281C174.243 442.819 173.833 441.755 173.049 441.008C172.302 440.224 171.257 439.832 169.913 439.832C168.643 439.832 167.262 440.019 165.769 440.392C164.275 440.728 163.025 441.139 162.017 441.624L160.057 435.576C161.102 434.867 162.689 434.288 164.817 433.84C166.982 433.355 168.643 433.112 169.801 433.112C173.049 433.112 175.83 434.064 178.145 435.968C180.459 437.835 181.617 440.224 181.617 443.136V461H177.865L176.073 458.704C175.065 459.488 173.87 460.179 172.489 460.776C171.145 461.373 169.801 461.672 168.457 461.672ZM204.276 441.176C202.969 440.579 201.756 440.131 200.636 439.832C199.516 439.496 198.321 439.328 197.052 439.328C196.118 439.328 195.39 439.515 194.868 439.888C194.382 440.224 194.14 440.709 194.14 441.344C194.14 441.792 194.438 442.221 195.036 442.632C195.67 443.043 196.678 443.491 198.06 443.976C200.337 444.797 202.446 445.955 204.388 447.448C206.329 448.904 207.3 450.808 207.3 453.16C207.3 455.848 206.329 457.939 204.388 459.432C202.484 460.925 199.684 461.672 195.988 461.672C194.83 461.672 193.281 461.448 191.34 461C189.436 460.552 187.849 459.843 186.58 458.872L188.764 453.608C190.07 454.205 191.321 454.672 192.516 455.008C193.748 455.307 194.868 455.456 195.876 455.456C197.22 455.456 198.246 455.269 198.956 454.896C199.665 454.523 200.02 454.037 200.02 453.44C200.02 452.693 199.665 452.021 198.956 451.424C198.246 450.827 197.126 450.285 195.596 449.8C193.43 449.091 191.377 448.083 189.436 446.776C187.532 445.432 186.58 443.64 186.58 441.4C186.58 438.824 187.532 436.808 189.436 435.352C191.34 433.859 193.916 433.112 197.164 433.112C198.321 433.112 199.814 433.355 201.644 433.84C203.473 434.325 205.078 435.035 206.46 435.968L204.276 441.176ZM224.92 455.456C227.421 455.456 229.176 454.56 230.184 452.768C231.192 450.939 231.696 449.091 231.696 447.224C231.696 445.096 231.248 443.192 230.352 441.512C229.456 439.832 227.645 438.992 224.92 438.992C224.136 438.992 223.314 439.141 222.456 439.44C221.634 439.701 220.85 440.075 220.104 440.56V453.888C220.85 454.336 221.634 454.709 222.456 455.008C223.314 455.307 224.136 455.456 224.92 455.456ZM212.88 433.84H216.576L218.144 435.856C219.376 434.923 220.813 434.176 222.456 433.616C224.098 433.056 225.554 432.776 226.824 432.776C230.818 432.776 233.88 434.157 236.008 436.92C238.136 439.683 239.2 443.117 239.2 447.224C239.2 451.331 238.098 454.765 235.896 457.528C233.73 460.291 230.706 461.672 226.824 461.672C225.853 461.672 224.752 461.504 223.52 461.168C222.325 460.832 221.186 460.365 220.104 459.768V472.704L212.88 473.264V433.84ZM250.459 452.88C250.459 453.664 250.776 454.373 251.411 455.008C252.045 455.605 252.885 455.904 253.931 455.904C254.939 455.904 255.947 455.68 256.955 455.232C258 454.784 258.989 454.112 259.923 453.216V449.072H254.435C253.165 449.072 252.176 449.464 251.467 450.248C250.795 451.032 250.459 451.909 250.459 452.88ZM254.043 461.672C250.72 461.672 248.256 460.869 246.651 459.264C245.045 457.621 244.243 455.493 244.243 452.88C244.243 450.08 245.195 447.933 247.099 446.44C249.003 444.947 251.485 444.2 254.547 444.2H259.867C259.829 442.819 259.419 441.755 258.635 441.008C257.888 440.224 256.843 439.832 255.499 439.832C254.229 439.832 252.848 440.019 251.355 440.392C249.861 440.728 248.611 441.139 247.603 441.624L245.643 435.576C246.688 434.867 248.275 434.288 250.403 433.84C252.568 433.355 254.229 433.112 255.387 433.112C258.635 433.112 261.416 434.064 263.731 435.968C266.045 437.835 267.203 440.224 267.203 443.136V461H263.451L261.659 458.704C260.651 459.488 259.456 460.179 258.075 460.776C256.731 461.373 255.387 461.672 254.043 461.672ZM288.798 433.84L290.254 439.664C289.022 439.664 287.584 440.019 285.942 440.728C284.336 441.437 282.75 442.483 281.182 443.864V461H273.902V433.84H277.71L280.118 437.816C281.238 436.845 282.6 435.949 284.206 435.128C285.811 434.269 287.342 433.84 288.798 433.84ZM314.99 422.92V438.88L329.27 422.08L334.646 426.224L323.334 439.328L339.238 461H330.222L318.574 444.872L314.99 449.072V461H307.71V422.92H314.99ZM357.595 433.84L359.051 439.664C357.819 439.664 356.381 440.019 354.739 440.728C353.133 441.437 351.547 442.483 349.979 443.864V461H342.699V433.84H346.507L348.915 437.816C350.035 436.845 351.397 435.949 353.003 435.128C354.608 434.269 356.139 433.84 357.595 433.84ZM375.313 461.672C371.02 461.635 367.66 460.328 365.233 457.752C362.844 455.176 361.649 451.704 361.649 447.336C361.649 443.005 362.9 439.552 365.401 436.976C367.94 434.4 371.393 433.112 375.761 433.112C380.278 433.112 383.769 434.456 386.233 437.144C388.734 439.795 389.985 443.285 389.985 447.616C389.985 451.947 388.641 455.363 385.953 457.864C383.265 460.365 379.718 461.635 375.313 461.672ZM382.481 447.616C382.481 445.04 381.902 443.024 380.745 441.568C379.625 440.075 378.02 439.328 375.929 439.328C373.801 439.328 372.14 439.981 370.945 441.288C369.75 442.595 369.153 444.592 369.153 447.28C369.153 449.968 369.657 452.003 370.665 453.384C371.71 454.765 373.297 455.456 375.425 455.456C377.516 455.456 379.214 454.84 380.521 453.608C381.828 452.339 382.481 450.341 382.481 447.616ZM403.416 421.464V461H396.192V422.08L403.416 421.464ZM418.291 421.464V461H411.067V422.08L418.291 421.464Z" fill="#FDEE00"/>
<path d="M1122.89 533C1130.62 533 1137.24 530.239 1142.74 524.716C1148.25 519.194 1151 512.555 1151 504.8V307.4C1151 299.645 1148.25 293.006 1142.74 287.484C1137.24 281.961 1130.62 279.2 1122.89 279.2H1108.83V265.1C1108.83 261.105 1107.49 257.756 1104.79 255.054C1102.1 252.351 1098.76 251 1094.78 251C1090.8 251 1087.46 252.351 1084.76 255.054C1082.07 257.756 1080.72 261.105 1080.72 265.1V279.2H968.278V265.1C968.278 261.105 966.931 257.756 964.237 255.054C961.543 252.351 958.205 251 954.222 251C950.24 251 946.902 252.351 944.208 255.054C941.514 257.756 940.167 261.105 940.167 265.1V279.2H926.111C918.381 279.2 911.763 281.961 906.258 287.484C900.753 293.006 898 299.645 898 307.4V504.8C898 512.555 900.753 519.194 906.258 524.716C911.763 530.239 918.381 533 926.111 533H1122.89ZM1122.89 504.8H926.111V363.8H1122.89V504.8ZM1122.89 335.6H926.111V307.4H1122.89V335.6ZM1080.72 420.2C1084.7 420.2 1088.04 418.849 1090.74 416.146C1093.43 413.444 1094.78 410.095 1094.78 406.1C1094.78 402.105 1093.43 398.756 1090.74 396.054C1088.04 393.351 1084.7 392 1080.72 392H968.278C964.295 392 960.957 393.351 958.263 396.054C955.569 398.756 954.222 402.105 954.222 406.1C954.222 410.095 955.569 413.444 958.263 416.146C960.957 418.849 964.295 420.2 968.278 420.2H1080.72ZM1080.72 476.6C1084.7 476.6 1088.04 475.249 1090.74 472.546C1093.43 469.844 1094.78 466.495 1094.78 462.5C1094.78 458.505 1093.43 455.156 1090.74 452.454C1088.04 449.751 1084.7 448.4 1080.72 448.4H1010.44C1006.46 448.4 1003.12 449.751 1000.43 452.454C997.736 455.156 996.389 458.505 996.389 462.5C996.389 466.495 997.736 469.844 1000.43 472.546C1003.12 475.249 1006.46 476.6 1010.44 476.6H1080.72Z" fill="#FDEE00"/>
<defs>
<linearGradient id="paint0_linear_2217_38" x1="0" y1="630" x2="1254.32" y2="138.662" gradientUnits="userSpaceOnUse">
<stop stop-color="#C73B8D"/>
<stop offset="1" stop-color="#2E0854"/>
</linearGradient>
</defs>
</svg>
