<svg width="48" height="48" viewBox="0 0 48 48" fill="none" xmlns="http://www.w3.org/2000/svg">
<rect width="48" height="48" rx="11" fill="url(#paint0_linear_2217_66)"/>
<path d="M36.4444 42C37.4222 42 38.2593 41.6475 38.9556 40.9425C39.6519 40.2375 40 39.39 40 38.4V13.2C40 12.21 39.6519 11.3625 38.9556 10.6575C38.2593 9.9525 37.4222 9.6 36.4444 9.6H34.6667V7.8C34.6667 7.29 34.4963 6.8625 34.1556 6.5175C33.8148 6.1725 33.3926 6 32.8889 6C32.3852 6 31.963 6.1725 31.6222 6.5175C31.2815 6.8625 31.1111 7.29 31.1111 7.8V9.6H16.8889V7.8C16.8889 7.29 16.7185 6.8625 16.3778 6.5175C16.037 6.1725 15.6148 6 15.1111 6C14.6074 6 14.1852 6.1725 13.8444 6.5175C13.5037 6.8625 13.3333 7.29 13.3333 7.8V9.6H11.5556C10.5778 9.6 9.74074 9.9525 9.04444 10.6575C8.34815 11.3625 8 12.21 8 13.2V38.4C8 39.39 8.34815 40.2375 9.04444 40.9425C9.74074 41.6475 10.5778 42 11.5556 42H36.4444ZM36.4444 38.4H11.5556V20.4H36.4444V38.4ZM36.4444 16.8H11.5556V13.2H36.4444V16.8ZM31.1111 27.6C31.6148 27.6 32.037 27.4275 32.3778 27.0825C32.7185 26.7375 32.8889 26.31 32.8889 25.8C32.8889 25.29 32.7185 24.8625 32.3778 24.5175C32.037 24.1725 31.6148 24 31.1111 24H16.8889C16.3852 24 15.963 24.1725 15.6222 24.5175C15.2815 24.8625 15.1111 25.29 15.1111 25.8C15.1111 26.31 15.2815 26.7375 15.6222 27.0825C15.963 27.4275 16.3852 27.6 16.8889 27.6H31.1111ZM31.1111 34.8C31.6148 34.8 32.037 34.6275 32.3778 34.2825C32.7185 33.9375 32.8889 33.51 32.8889 33C32.8889 32.49 32.7185 32.0625 32.3778 31.7175C32.037 31.3725 31.6148 31.2 31.1111 31.2H22.2222C21.7185 31.2 21.2963 31.3725 20.9556 31.7175C20.6148 32.0625 20.4444 32.49 20.4444 33C20.4444 33.51 20.6148 33.9375 20.9556 34.2825C21.2963 34.6275 21.7185 34.8 22.2222 34.8H31.1111Z" fill="#FDEE00"/>
<defs>
<linearGradient id="paint0_linear_2217_66" x1="0" y1="48" x2="55.5231" y2="36.5816" gradientUnits="userSpaceOnUse">
<stop stop-color="#C73B8D"/>
<stop offset="1" stop-color="#5A0C3A"/>
</linearGradient>
</defs>
</svg>
